<svg xmlns="http://www.w3.org/2000/svg" viewBox="0 0 1200 630" fill="none">
  <rect width="1200" height="630" fill="#07070a"/>
  <circle cx="220" cy="-40" r="320" fill="#34d399" fill-opacity="0.07"/>
  <circle cx="1080" cy="700" r="360" fill="#22d3ee" fill-opacity="0.06"/>
  <g transform="translate(88 168) scale(6.2)">
    <defs>
      <linearGradient id="og-ring" x1="8" y1="6" x2="42" y2="40">
        <stop stop-color="#34d399"/>
        <stop offset="1" stop-color="#22d3ee"/>
      </linearGradient>
      <linearGradient id="og-hit" x1="18" y1="20" x2="34" y2="30">
        <stop stop-color="#34d399"/>
        <stop offset="1" stop-color="#6ee7b7"/>
      </linearGradient>
    </defs>
    <circle cx="24" cy="24" r="18.5" stroke="url(#og-ring)" stroke-width="1.75"/>
    <circle cx="24" cy="24" r="13.4" stroke="#22d3ee" stroke-opacity="0.32" stroke-width="1"/>
    <path d="M16 20.5 24 24l8 3.4" stroke="#34d399" stroke-opacity="0.42" stroke-width="1.2"/>
    <path d="M18 28.6 24 24l6.2-4.6" stroke="#22d3ee" stroke-opacity="0.32" stroke-width="1.1"/>
    <rect x="12.2" y="16.2" width="8.2" height="5.1" rx="1.3" fill="#07070a" stroke="#34d399" stroke-opacity="0.75"/>
    <rect x="27.6" y="26.2" width="8.2" height="5.1" rx="1.3" fill="#07070a" stroke="#22d3ee" stroke-opacity="0.75"/>
    <rect x="18.2" y="20.8" width="11.6" height="6.8" rx="1.6" fill="url(#og-hit)"/>
  </g>
  <text x="430" y="278" fill="#fafafa" font-family="ui-sans-serif, system-ui, Inter, sans-serif" font-size="72" font-weight="600" letter-spacing="-1.5">Retrieval</text>
  <text x="778" y="278" fill="#34d399" font-family="ui-sans-serif, system-ui, Inter, sans-serif" font-size="72" font-weight="600" letter-spacing="-1.5">Lab</text>
  <text x="430" y="338" fill="#a1a1aa" font-family="ui-sans-serif, system-ui, Inter, sans-serif" font-size="28">Advanced RAG, made visible.</text>
  <text x="430" y="430" fill="#52525b" font-family="ui-monospace, SFMono-Regular, Menlo, monospace" font-size="16" letter-spacing="3">QUERY · HYBRID · RERANK · GROUNDED ANSWER</text>
</svg>
